<svg width="276" height="557" viewBox="0 0 276 557" fill="none" xmlns="http://www.w3.org/2000/svg">
<path d="M273.053 128.056V40.0323C273.053 17.9602 255.421 0 233.746 0H42.7371C21.068 0 3.43571 17.9602 3.43571 40.0323V74.2779H0V96.2899H3.43571V114.046H0V154.312H3.43571V164.319H0V204.585H3.43571V516.968C3.43571 539.046 21.068 557 42.7371 557H233.746C255.421 557 273.053 539.046 273.053 516.968V191.835H276V128.056H273.053ZM261.267 128.056V191.835V516.968C261.267 532.419 248.921 544.995 233.746 544.995H42.7371C27.5682 544.995 15.222 532.419 15.222 516.968V40.0323C15.222 24.5752 27.5682 12.0055 42.7371 12.0055C116.44 12.0055 174.071 12.0055 233.746 12.0055C248.921 12.0055 261.267 24.5752 261.267 40.0323V128.056Z" fill="#142027"/>
</svg>
